<svg xmlns="http://www.w3.org/2000/svg" viewBox="0 0 20 20" fill="#FFFFFF" style="enable-background:new 0 0 439.274 439.274" xml:space="preserve" width="20" height="20"><path d="m19.914 6.658-3.182-4.415a.455.455 0 0 0-.369-.189H3.637a.455.455 0 0 0-.369.189L.086 6.658a.455.455 0 0 0-.036.474.44.44 0 0 0 .068.098l9.554 10.568a.455.455 0 0 0 .675 0L19.89 7.221a.454.454 0 0 0 .06-.088.455.455 0 0 0-.036-.474zm-1.259-.189h-4.584l2.292-3.181 2.292 3.181zm-6.086.911-2.562 8.533L7.431 7.38h5.138zm-4.862-.911 2.292-3.181 2.292 3.181H7.708zm3.182-3.505h4.585l-2.292 3.181-2.292-3.181zM6.818 6.145 4.526 2.964h4.585L6.819 6.145zM6.48 7.379l2.507 8.303-7.506-8.303h5zm7.04 0h5.017l-7.511 8.309L13.52 7.38zM3.637 3.288l2.292 3.181H1.345l2.292-3.181z"/></svg>