<svg height="20" width="20" xmlns="http://www.w3.org/2000/svg" viewBox="0 0 12.8 12.8" xml:space="preserve"><path d="M3.838 3.473a.04.04 0 0 0-.021.006L.016 6.075a.037.037 0 0 0-.016.03v.698c0 .012.006.024.016.03l3.802 2.595a.037.037 0 0 0 .021.006.047.047 0 0 0 .017-.004.037.037 0 0 0 .02-.033v-1.11a.037.037 0 0 0-.016-.03L1.219 6.454l2.64-1.802a.037.037 0 0 0 .016-.031V3.51a.034.034 0 0 0-.02-.032.035.035 0 0 0-.017-.004zm8.946 2.602L8.982 3.48a.037.037 0 0 0-.021-.006.037.037 0 0 0-.037.036v1.112c0 .012.006.023.016.03l2.64 1.802-2.64 1.802a.036.036 0 0 0-.016.03v1.112a.036.036 0 0 0 .037.037.04.04 0 0 0 .021-.006l3.802-2.595a.036.036 0 0 0 .016-.03v-.698a.035.035 0 0 0-.016-.03zm-4.646-3.21H7.075a.036.036 0 0 0-.035.025L4.627 9.887a.036.036 0 0 0 .005.033c.007.01.018.016.03.016h1.063c.016 0 .03-.01.035-.025l2.413-6.997a.037.037 0 0 0-.005-.033.037.037 0 0 0-.03-.015z" style="fill:#000"/></svg>