<svg fill="#000000" width="20px" height="20px" viewBox="0 0 0.9 0.9" version="1.1" preserveAspectRatio="xMidYMid meet" xmlns="http://www.w3.org/2000/svg" xmlns:xlink="http://www.w3.org/1999/xlink"><title>folder-line</title><path class="clr-i-outline clr-i-outline-path-1" d="M0.75 0.225H0.411l-0.058 -0.08A0.05 0.05 0 0 0 0.312 0.125H0.15a0.05 0.05 0 0 0 -0.05 0.05v0.55a0.05 0.05 0 0 0 0.05 0.05h0.6a0.05 0.05 0 0 0 0.05 -0.05V0.275a0.05 0.05 0 0 0 -0.05 -0.05Zm0 0.5H0.15V0.325h0.183a0.05 0.05 0 0 0 0.05 -0.05H0.15V0.175h0.162l0.065 0.09a0.025 0.025 0 0 0 0.02 0.01H0.75Z"/><path x="0" y="0" width="36" height="36" fill-opacity="0" d="M0 0H0.9V0.9H0V0z"/></svg>