<svg xmlns="http://www.w3.org/2000/svg" viewBox="0 0 0.103 0.103" xml:space="preserve" width="18" height="18"><path d="M.037.021h.064a.002.002 0 1 0 0-.003H.037a.002.002 0 1 0 0 .003zM.101.05H.037a.002.002 0 1 0 0 .003h.064a.002.002 0 1 0 0-.003zm0 .033H.037a.002.002 0 1 0 0 .003h.064a.002.002 0 1 0 0-.003zM.01.009a.01.01 0 0 0-.01.01.01.01 0 0 0 .01.01.01.01 0 0 0 .01-.01.01.01 0 0 0-.01-.01zm0 .016A.007.007 0 0 1 .003.019.007.007 0 0 1 .01.013.007.007 0 0 1 .017.02.007.007 0 0 1 .01.027zm0 .018A.01.01 0 0 0 0 .052a.01.01 0 0 0 .01.01.01.01 0 0 0 .01-.01.01.01 0 0 0-.01-.01zm0 .016A.007.007 0 0 1 .003.052.007.007 0 0 1 .01.046a.007.007 0 0 1 .007.007A.007.007 0 0 1 .01.06zm0 .015a.01.01 0 0 0-.01.01.01.01 0 0 0 .01.01.01.01 0 0 0 .009-.01.01.01 0 0 0-.009-.01zm0 .016A.007.007 0 0 1 .003.084.007.007 0 0 1 .01.078a.007.007 0 0 1 .007.007.007.007 0 0 1-.007.007z"/></svg>