<svg fill="#000000" width="18px" height="18px" viewBox="0 0 0.81 0.81" version="1.1" preserveAspectRatio="xMidYMid meet" xmlns="http://www.w3.org/2000/svg" xmlns:xlink="http://www.w3.org/1999/xlink"><title>menu-line</title><path class="clr-i-outline clr-i-outline-path-1" d="M0.72 0.652H0.09a0.023 0.023 0 0 1 0 -0.045h0.63a0.023 0.023 0 0 1 0 0.045Z"/><path class="clr-i-outline clr-i-outline-path-2" d="M0.72 0.427H0.09a0.023 0.023 0 0 1 0 -0.045h0.63a0.023 0.023 0 0 1 0 0.045Z"/><path class="clr-i-outline clr-i-outline-path-3" d="M0.72 0.203H0.09a0.023 0.023 0 0 1 0 -0.045h0.63a0.023 0.023 0 0 1 0 0.045Z"/><path x="0" y="0" width="36" height="36" fill-opacity="0" d="M0 0h0.81v0.81H0V0z"/></svg>