<svg version="1.1" id="Layer_1" fill="#FFFFFF" xmlns="http://www.w3.org/2000/svg" xmlns:xlink="http://www.w3.org/1999/xlink" x="0px" y="0px" viewBox="0 0 20 20" style="enable-background:new 0 0 458.379 458.379;" xml:space="preserve" width="20" height="20"><g><g><g><path cx="53.792" cy="53.311" r="53.311" d="M4.673 2.326A2.326 2.326 0 0 1 2.347 4.652A2.326 2.326 0 0 1 0.021 2.326A2.326 2.326 0 0 1 4.673 2.326z"/><path cx="404.908" cy="53.311" r="53.311" d="M19.993 2.326A2.326 2.326 0 0 1 17.667 4.652A2.326 2.326 0 0 1 15.341 2.326A2.326 2.326 0 0 1 19.993 2.326z"/><path cx="229.35" cy="53.311" r="53.311" d="M12.333 2.326A2.326 2.326 0 0 1 10.007 4.652A2.326 2.326 0 0 1 7.681 2.326A2.326 2.326 0 0 1 12.333 2.326z"/><path cx="53.472" cy="229.19" r="53.312" d="M4.659 10A2.326 2.326 0 0 1 2.333 12.326A2.326 2.326 0 0 1 0.007 10A2.326 2.326 0 0 1 4.659 10z"/><path cx="404.587" cy="229.19" r="53.312" d="M19.979 10A2.326 2.326 0 0 1 17.653 12.326A2.326 2.326 0 0 1 15.327 10A2.326 2.326 0 0 1 19.979 10z"/><path cx="229.03" cy="229.19" r="53.312" d="M12.319 10A2.326 2.326 0 0 1 9.993 12.326A2.326 2.326 0 0 1 7.667 10A2.326 2.326 0 0 1 12.319 10z"/><path cx="53.472" cy="405.068" r="53.311" d="M4.659 17.674A2.326 2.326 0 0 1 2.333 20A2.326 2.326 0 0 1 0.007 17.674A2.326 2.326 0 0 1 4.659 17.674z"/><path cx="404.587" cy="405.068" r="53.311" d="M19.979 17.674A2.326 2.326 0 0 1 17.653 20A2.326 2.326 0 0 1 15.327 17.674A2.326 2.326 0 0 1 19.979 17.674z"/><path cx="229.03" cy="405.068" r="53.311" d="M12.319 17.674A2.326 2.326 0 0 1 9.993 20A2.326 2.326 0 0 1 7.667 17.674A2.326 2.326 0 0 1 12.319 17.674z"/></g></g></g></svg>