<svg xmlns="http://www.w3.org/2000/svg" viewBox="0 0 20 20" style="enable-background:new 0 0 512 512" xml:space="preserve" width="20" height="20"><path style="fill:#e2e5e7" d="M5 0c-.688 0-1.25.563-1.25 1.25v17.5c0 .688.563 1.25 1.25 1.25h12.5c.688 0 1.25-.563 1.25-1.25V5l-5-5H5z"/><path style="fill:#b0b7bd" d="M15 5h3.75l-5-5v3.75c0 .688.563 1.25 1.25 1.25z"/><path style="fill:#cad1d8" d="M18.75 8.75 15 5h3.75Z"/><path style="fill:#f15642" d="M16.25 16.25a.627.627 0 0 1-.625.625H1.875a.627.627 0 0 1-.625-.625V10c0-.344.281-.625.625-.625h13.75c.344 0 .625.281.625.625v6.25z"/><path style="fill:#fff" d="M3.974 11.842c0-.165.13-.345.339-.345h1.154c.65 0 1.235.435 1.235 1.269 0 .79-.585 1.23-1.235 1.23h-.834v.66c0 .22-.14.344-.32.344a.336.336 0 0 1-.339-.344v-2.814zm.659.284v1.245h.834c.335 0 .6-.296.6-.606 0-.349-.265-.639-.6-.639h-.834zM7.682 15c-.165 0-.345-.09-.345-.309v-2.839c0-.179.18-.31.345-.31h1.144c2.284 0 2.234 3.458.045 3.458H7.682zm.315-2.848v2.239h.829c1.349 0 1.409-2.239 0-2.239h-.829zm3.873.04v.794h1.274c.18 0 .36.18.36.354 0 .165-.18.3-.36.3H11.87v1.049c0 .175-.124.309-.299.309-.22 0-.354-.134-.354-.309V11.85c0-.179.135-.31.354-.31h1.754c.22 0 .35.131.35.31 0 .16-.13.34-.35.34H11.87v.001z"/><path style="fill:#cad1d8" d="M15.625 16.875H3.75v.625h11.875a.627.627 0 0 0 .625-.625v-.625a.627.627 0 0 1-.625.625z"/></svg>