<svg width="20px" height="20px" viewBox="0 0 0.8 0.8" fill="none" xmlns="http://www.w3.org/2000/svg"><g clip-path="url(#clip0_901_1422)"><path d="m0.45 0.551 -0.175 -0.175c-0.021 -0.021 -0.029 -0.021 -0.05 0L0.025 0.575v0.175a0.025 0.025 0 0 0 0.025 0.025h0.7a0.025 0.025 0 0 0 0.025 -0.025V0.05a0.025 0.025 0 0 0 -0.025 -0.025H0.05a0.025 0.025 0 0 0 -0.025 0.025v0.425m0.375 0.125 0.175 -0.175c0.021 -0.021 0.029 -0.021 0.05 0l0.075 0.075M0.575 0.225A0.05 0.05 0 1 1 0.475 0.225 0.05 0.05 0 0 1 0.575 0.225Z" stroke="#000000" stroke-width="0.05" stroke-linecap="round" stroke-linejoin="round"/></g><defs><clipPath id="clip0_901_1422"><path width="32" height="32" fill="white" d="M0 0H0.8V0.8H0V0z"/></clipPath></defs></svg>