<svg width="20px" height="20px" viewBox="0 0 0.6 0.6" fill="#FFFFFF" xmlns="http://www.w3.org/2000/svg"><g id="style=stroke"><g id="profile"><path id="vector (Stroke)" fill-rule="evenodd" clip-rule="evenodd" d="M0.3 0.069a0.094 0.094 0 1 0 0 0.188 0.094 0.094 0 0 0 0 -0.188ZM0.169 0.163a0.131 0.131 0 1 1 0.263 0 0.131 0.131 0 0 1 -0.263 0Z" fill="#FFFFFF"/><path id="rec (Stroke)" fill-rule="evenodd" clip-rule="evenodd" d="M0.106 0.464a0.133 0.133 0 0 1 0.133 -0.133h0.121a0.133 0.133 0 0 1 0.133 0.133 0.104 0.104 0 0 1 -0.104 0.104H0.211a0.104 0.104 0 0 1 -0.104 -0.104Zm0.133 -0.096a0.096 0.096 0 0 0 -0.096 0.096c0 0.037 0.03 0.067 0.067 0.067h0.179c0.037 0 0.067 -0.03 0.067 -0.067 0 -0.053 -0.043 -0.096 -0.096 -0.096H0.239Z" fill="#FFFFFF"/></g></g></svg>