<svg width="20px" height="20px" viewBox="0 0 0.375 0.375" fill="#FFFFFF" xmlns="http://www.w3.org/2000/svg"><path fill-rule="evenodd" clip-rule="evenodd" d="M0.092 0.041A0.138 0.138 0 0 1 0.19 0h0.005C0.253 0 0.3 0.048 0.3 0.106a0.104 0.104 0 0 1 -0.057 0.093A0.078 0.078 0 0 0 0.2 0.268V0.3H0.175v-0.032c0 -0.039 0.022 -0.075 0.057 -0.092A0.079 0.079 0 0 0 0.275 0.106C0.275 0.062 0.239 0.025 0.195 0.025h-0.005a0.113 0.113 0 0 0 -0.08 0.033l-0.013 0.013 -0.018 -0.018 0.013 -0.013ZM0.2 0.375H0.175v-0.025h0.025v0.025Z" fill="#FFFFFF"/></svg>