<svg width="20px" height="20px" viewBox="0 0 20 20" id="icon" xmlns="http://www.w3.org/2000/svg"><defs><style>.cls-1{fill:none;}</style></defs><title>recently-viewed</title><path points="20.59 22 15 16.41 15 7 17 7 17 15.58 22 20.59 20.59 22" d="M12.869 13.75L9.375 10.256L9.375 4.375L10.625 4.375L10.625 9.738L13.75 12.869L12.869 13.75Z"/><path d="M10 1.25A8.713 8.713 0 0 0 3.75 3.894V1.25H2.5v5h5V5H4.425A7.5 7.5 0 1 1 2.5 10H1.25A8.75 8.75 0 1 0 10 1.25Z"/><path id="_Transparent_Rectangle_" data-name="&amp;lt;Transparent Rectangle&amp;gt;" class="cls-1" width="32" height="32" d="M0 0H20V20H0V0z"/></svg>