<svg xmlns="http://www.w3.org/2000/svg" viewBox="0 0 20 20" style="enable-background:new 0 0 512 512" xml:space="preserve" width="20" height="20"><path d="M16.522 2.609h-1.957v-.652A1.958 1.958 0 0 0 12.609 0H7.391a1.96 1.96 0 0 0-1.957 1.957v.652H3.478a1.96 1.96 0 0 0-1.957 1.957V5.87c0 .36.292.652.652.652h.652v11.522a1.96 1.96 0 0 0 1.957 1.957h10.435a1.96 1.96 0 0 0 1.957-1.957V6.522h.652c.36 0 .652-.292.652-.652V4.565a1.96 1.96 0 0 0-1.957-1.957zm-9.783-.652c0-.36.293-.652.652-.652h5.217c.36 0 .652.293.652.652v.652H6.739v-.652zm9.13 16.087c0 .36-.293.652-.652.652H4.782a.653.653 0 0 1-.652-.652V6.522h11.739v11.522zm1.304-12.826H2.826v-.653c0-.36.293-.652.652-.652h13.043c.36 0 .652.293.652.652v.652z"/><path d="m14.191 13.263-.387-.581a.651.651 0 1 0-1.085.723l.387.581A.652.652 0 0 1 12.563 15h-.359a.651.651 0 0 0-1.056-.727l-.874.874a.657.657 0 0 0-.048.97l.922.922a.651.651 0 0 0 1.052-.736h.363c1.561 0 2.494-1.743 1.628-3.042zm-1.576-4.337a.651.651 0 0 0-.702.256l-.182-.315c-.782-1.355-2.758-1.285-3.448.111l-.309.626a.652.652 0 1 0 1.17.578l.309-.626a.652.652 0 0 1 1.149-.037l.179.311a.651.651 0 0 0-.101 1.278l1.197.321a.657.657 0 0 0 .862-.444l.338-1.26a.652.652 0 0 0-.461-.799zm-3.783 6.573a.652.652 0 0 0-.693-.609l-.697.045a.652.652 0 0 1-.607-.977l.179-.311a.652.652 0 0 0 1.157-.552l-.32-1.194a.658.658 0 0 0-.816-.527l-1.26.338a.652.652 0 0 0 .112 1.279l-.182.315c-.754 1.306.194 2.935 1.693 2.935.085 0 .068 0 .824-.049a.652.652 0 0 0 .609-.693z"/></svg>