<svg width="20px" height="20px" viewBox="0 0 0.6 0.6"  xmlns="http://www.w3.org/2000/svg"><path d="m0.353 0.084 0.012 -0.001 -0.012 0.001Zm-0.004 -0.021 -0.011 0.006 0.011 -0.006Zm0.011 0.057 0.01 -0.008 -0.01 0.008Zm0.023 0.01 -0.002 -0.012 0.002 0.012Zm0.031 -0.021 0.008 0.01 -0.008 -0.01Zm0.017 -0.012 0.004 0.012 -0.004 -0.012Zm0.018 0.001 0.005 -0.011 -0.005 0.012Zm0.016 0.013 -0.009 0.009 0.009 -0.009Zm0.022 0.022 0.009 -0.009 -0.009 0.009Zm0.013 0.016 0.011 -0.005 -0.012 0.005Zm0.001 0.018 0.012 0.004 -0.012 -0.004Zm-0.012 0.017 -0.01 -0.008 0.01 0.008Zm-0.021 0.031 -0.012 -0.002 0.012 0.002Zm0.01 0.023 -0.008 0.01 0.008 -0.01Zm0.036 0.007 0.001 -0.012 -0.001 0.012Zm0.021 0.004 0.006 -0.011 -0.006 0.011Zm0.012 0.013 0.012 -0.005 -0.012 0.005Zm0 0.073 -0.012 -0.005 0.012 0.005Zm-0.012 0.013 0.006 0.011 -0.006 -0.011Zm-0.021 0.004 -0.001 -0.012 0 0 0 0 0.002 0.012Zm0 0 0.001 0.012 0 0 0 0 -0.002 -0.012Zm-0.036 0.007 -0.008 -0.01 0.008 0.01Zm-0.01 0.023 -0.012 0.002 0.012 -0.002Zm0.021 0.031 -0.01 0.008 0.01 -0.008Zm0.012 0.017 -0.012 0.004 0.012 -0.004Zm-0.001 0.018 -0.011 -0.005 0.011 0.005Zm-0.013 0.016 0.009 0.009 -0.009 -0.009Zm-0.022 0.022 -0.009 -0.009 0.009 0.009Zm-0.016 0.013 0.005 0.012 -0.005 -0.012Zm-0.018 0.001 -0.004 0.012 0.004 -0.012Zm-0.017 -0.012 0.008 -0.01 0 0 -0.008 0.01Zm0 0 -0.008 0.01 0 0 0.008 -0.01Zm-0.031 -0.021 0.002 -0.012 -0.002 0.012Zm-0.023 0.01 0.01 0.008 -0.01 -0.008Zm-0.007 0.036 -0.012 -0.001 0.012 0.001Zm-0.004 0.021 -0.011 -0.006 0.011 0.006Zm-0.013 0.012 -0.005 -0.012 0.005 0.012Zm-0.073 0 0.005 -0.012 -0.005 0.012Zm-0.013 -0.012 0.011 -0.006 -0.011 0.006Zm-0.004 -0.021 -0.012 0.001 0.012 -0.001Zm-0.007 -0.036 -0.01 0.008 0.01 -0.008Zm-0.023 -0.01 -0.002 -0.012 0.002 0.012Zm-0.031 0.021 -0.008 -0.01 0 0 0 0 0.008 0.009Zm0 0 0.008 0.01 0 0 0 0 -0.008 -0.009Zm-0.017 0.012 0.004 0.012 -0.004 -0.012Zm-0.018 -0.001 -0.005 0.011 0.005 -0.012Zm-0.016 -0.013 0.009 -0.009 -0.009 0.009Zm-0.022 -0.022 -0.009 0.009 0.009 -0.009Zm-0.013 -0.016 0.011 -0.005 -0.011 0.005Zm-0.001 -0.018 0.012 0.004 -0.012 -0.004Zm0.012 -0.017 0.01 0.008 -0.01 -0.008Zm0.021 -0.031 0.012 0.002 -0.012 -0.002Zm-0.01 -0.023 0.008 -0.01 -0.008 0.01Zm-0.036 -0.007 -0.001 0.012 0.001 -0.012Zm-0.021 -0.004 0.006 -0.011 -0.006 0.011Zm-0.012 -0.013 -0.012 0.005 0.012 -0.005Zm0 -0.073 -0.012 -0.005 0.012 0.005Zm0.012 -0.013 -0.006 -0.011 0.006 0.011Zm0.021 -0.004v-0.013h-0.001l-0.001 0 0.001 0.012Zm0 0v0.013h0.001l0.001 0 -0.001 -0.012Zm0.036 -0.007 -0.008 -0.01 0.008 0.01Zm0.01 -0.023 0.012 -0.002 -0.012 0.002ZM0.11 0.185l0.01 -0.008 -0.01 0.008Zm-0.012 -0.017 0.012 -0.004 -0.012 0.004Zm0.001 -0.018 -0.011 -0.005 0.012 0.005Zm0.013 -0.016 0.009 0.009 -0.009 -0.009Zm0.022 -0.022 -0.009 -0.009 0.009 0.009Zm0.016 -0.013 -0.005 -0.012 0.005 0.012Zm0.018 -0.001 0.004 -0.012 -0.004 0.012Zm0.017 0.012 0.008 -0.01 -0.008 0.01Zm0.031 0.021 0.002 -0.012 -0.002 0.012Zm0.023 -0.01 -0.01 -0.008 0.01 0.008Zm0.007 -0.036 0.012 0.001 -0.012 -0.001Zm0.004 -0.021 -0.011 -0.006 0.011 0.006Zm0.013 -0.012 0.005 0.012 -0.005 -0.012Zm0.073 0 0.005 -0.012 -0.005 0.012Zm0.029 0.031c-0.001 -0.005 -0.001 -0.01 -0.002 -0.014a0.038 0.038 0 0 0 -0.004 -0.011l-0.022 0.011c0 0.001 0.001 0.002 0.001 0.004 0 0.003 0.001 0.006 0.001 0.012l0.025 -0.003Zm0.005 0.03c0 0 -0.001 -0.002 -0.002 -0.007a0.332 0.332 0 0 1 -0.003 -0.023l-0.025 0.003c0.001 0.01 0.002 0.018 0.003 0.025 0.001 0.006 0.003 0.013 0.007 0.018l0.02 -0.015Zm0.012 0.005a0.013 0.013 0 0 1 -0.012 -0.005l-0.02 0.015a0.038 0.038 0 0 0 0.035 0.014l-0.003 -0.025Zm0.025 -0.018c-0.008 0.007 -0.014 0.011 -0.018 0.014 -0.004 0.003 -0.006 0.004 -0.007 0.004l0.003 0.025c0.007 -0.001 0.012 -0.004 0.018 -0.008 0.005 -0.004 0.012 -0.009 0.02 -0.015l-0.016 -0.019Zm0.021 -0.014c-0.004 0.001 -0.007 0.003 -0.011 0.006 -0.003 0.002 -0.007 0.005 -0.011 0.008l0.016 0.019c0.004 -0.004 0.007 -0.006 0.009 -0.007a0.014 0.014 0 0 1 0.004 -0.002l-0.008 -0.024Zm0.026 0.001a0.038 0.038 0 0 0 -0.026 -0.001l0.008 0.024a0.013 0.013 0 0 1 0.009 0l0.01 -0.023Zm0.02 0.016c-0.004 -0.004 -0.007 -0.007 -0.01 -0.01a0.038 0.038 0 0 0 -0.01 -0.007l-0.01 0.023c0.001 0 0.001 0.001 0.003 0.003 0.002 0.002 0.005 0.004 0.009 0.008l0.018 -0.018Zm0.022 0.022 -0.022 -0.022 -0.018 0.018 0.022 0.022 0.018 -0.018Zm0.016 0.02a0.038 0.038 0 0 0 -0.007 -0.01c-0.003 -0.003 -0.006 -0.006 -0.009 -0.01l-0.018 0.018c0.004 0.004 0.007 0.007 0.008 0.009 0.002 0.002 0.002 0.003 0.002 0.003l0.023 -0.01Zm0.001 0.026a0.038 0.038 0 0 0 -0.001 -0.026l-0.023 0.01a0.013 0.013 0 0 1 0 0.009l0.024 0.008Zm-0.014 0.021c0.003 -0.004 0.006 -0.008 0.008 -0.011 0.002 -0.003 0.004 -0.007 0.006 -0.011l-0.024 -0.008a0.014 0.014 0 0 1 -0.002 0.004 0.201 0.201 0 0 1 -0.007 0.009l0.019 0.016Zm-0.018 0.025c0 0 0.001 -0.002 0.004 -0.007 0.003 -0.004 0.008 -0.01 0.014 -0.018l-0.019 -0.016c-0.006 0.008 -0.012 0.014 -0.015 0.02 -0.004 0.005 -0.007 0.011 -0.008 0.018l0.025 0.003Zm0.005 0.012a0.013 0.013 0 0 1 -0.005 -0.012l-0.025 -0.003a0.038 0.038 0 0 0 0.014 0.035l0.015 -0.02Zm0.03 0.005c-0.01 -0.001 -0.018 -0.002 -0.023 -0.003 -0.005 -0.001 -0.007 -0.002 -0.007 -0.002l-0.015 0.02c0.005 0.004 0.012 0.006 0.018 0.007 0.006 0.001 0.015 0.002 0.025 0.003l0.003 -0.025Zm0.025 0.005a0.038 0.038 0 0 0 -0.011 -0.004c-0.004 -0.001 -0.008 -0.001 -0.014 -0.002l-0.003 0.025c0.006 0.001 0.009 0.001 0.012 0.001a0.014 0.014 0 0 1 0.004 0.001l0.011 -0.022Zm0.018 0.02a0.038 0.038 0 0 0 -0.018 -0.02l-0.011 0.022a0.013 0.013 0 0 1 0.006 0.007l0.023 -0.009Zm0.003 0.025c0 -0.005 0 -0.01 0 -0.014a0.038 0.038 0 0 0 -0.002 -0.012l-0.023 0.009c0 0.001 0.001 0.002 0.001 0.004 0 0.003 0 0.006 0 0.012h0.025Zm0 0.032v-0.032h-0.025v0.032h0.025Zm-0.003 0.025c0.002 -0.004 0.002 -0.008 0.002 -0.012 0 -0.004 0 -0.008 0 -0.014h-0.025c0 0.006 0 0.009 0 0.012a0.014 0.014 0 0 1 -0.001 0.004l0.023 0.009Zm-0.018 0.02a0.038 0.038 0 0 0 0.018 -0.02l-0.023 -0.009a0.013 0.013 0 0 1 -0.006 0.007l0.011 0.022Zm-0.025 0.005c0.005 -0.001 0.01 -0.001 0.014 -0.002 0.004 -0.001 0.008 -0.002 0.011 -0.004l-0.011 -0.022a0.014 0.014 0 0 1 -0.004 0.001c-0.003 0 -0.006 0.001 -0.012 0.001l0.003 0.025Zm0.001 0 -0.004 -0.025 0.004 0.025Zm-0.031 0.005c0 0 0.002 -0.001 0.007 -0.002 0.005 -0.001 0.012 -0.002 0.023 -0.003l-0.003 -0.025c-0.01 0.001 -0.018 0.002 -0.025 0.003 -0.006 0.001 -0.013 0.003 -0.018 0.007l0.015 0.02Zm-0.005 0.012a0.013 0.013 0 0 1 0.005 -0.012l-0.015 -0.02a0.038 0.038 0 0 0 -0.014 0.035l0.025 -0.003Zm0.018 0.025a0.334 0.334 0 0 1 -0.014 -0.018c-0.003 -0.004 -0.004 -0.006 -0.004 -0.007l-0.025 0.003c0.001 0.007 0.004 0.012 0.008 0.018 0.004 0.005 0.009 0.012 0.015 0.02l0.019 -0.016Zm0.014 0.021a0.038 0.038 0 0 0 -0.006 -0.011c-0.002 -0.003 -0.005 -0.007 -0.008 -0.011l-0.019 0.016c0.004 0.004 0.006 0.007 0.007 0.009a0.014 0.014 0 0 1 0.002 0.004l0.024 -0.008Zm-0.001 0.026a0.038 0.038 0 0 0 0.001 -0.026l-0.024 0.008a0.013 0.013 0 0 1 0 0.009l0.023 0.01Zm-0.016 0.02c0.004 -0.004 0.007 -0.007 0.009 -0.01 0.003 -0.003 0.005 -0.006 0.007 -0.01l-0.023 -0.01a0.014 0.014 0 0 1 -0.003 0.003 0.2 0.2 0 0 1 -0.008 0.009l0.018 0.018Zm-0.022 0.022 0.022 -0.022 -0.018 -0.018 -0.022 0.022 0.018 0.018Zm-0.02 0.016c0.004 -0.002 0.007 -0.004 0.01 -0.007 0.003 -0.003 0.006 -0.006 0.01 -0.01l-0.018 -0.018c-0.004 0.004 -0.007 0.007 -0.009 0.008a0.014 0.014 0 0 1 -0.003 0.003l0.01 0.023Zm-0.026 0.001a0.038 0.038 0 0 0 0.026 -0.001l-0.01 -0.023a0.013 0.013 0 0 1 -0.009 0l-0.008 0.024Zm-0.021 -0.014c0.004 0.003 0.008 0.006 0.011 0.008 0.003 0.002 0.007 0.004 0.011 0.006l0.008 -0.024a0.014 0.014 0 0 1 -0.004 -0.002 0.201 0.201 0 0 1 -0.009 -0.007l-0.016 0.019Zm0 0 0.016 -0.02 -0.016 0.02Zm-0.025 -0.018c0 0 0.002 0.001 0.007 0.004 0.004 0.003 0.01 0.008 0.018 0.014l0.016 -0.019c-0.008 -0.006 -0.014 -0.012 -0.02 -0.015 -0.005 -0.004 -0.011 -0.007 -0.018 -0.008l-0.003 0.025Zm-0.012 0.005a0.013 0.013 0 0 1 0.012 -0.005l0.003 -0.025a0.038 0.038 0 0 0 -0.035 0.014l0.02 0.015Zm-0.005 0.03c0.001 -0.01 0.002 -0.018 0.003 -0.023 0.001 -0.005 0.002 -0.007 0.002 -0.007l-0.02 -0.015c-0.004 0.005 -0.006 0.012 -0.007 0.018 -0.001 0.006 -0.002 0.015 -0.003 0.025l0.025 0.003Zm-0.005 0.025c0.002 -0.004 0.003 -0.008 0.004 -0.011 0.001 -0.004 0.001 -0.008 0.002 -0.014l-0.025 -0.003a0.2 0.2 0 0 1 -0.001 0.012 0.014 0.014 0 0 1 -0.001 0.004l0.022 0.011Zm-0.02 0.018a0.038 0.038 0 0 0 0.02 -0.018l-0.022 -0.011a0.013 0.013 0 0 1 -0.007 0.006l0.009 0.023Zm-0.025 0.003c0.005 0 0.01 0 0.014 0 0.004 0 0.008 -0.001 0.012 -0.002l-0.009 -0.023a0.014 0.014 0 0 1 -0.004 0.001c-0.003 0 -0.006 0 -0.012 0v0.025Zm-0.032 0h0.032v-0.025h-0.032v0.025Zm-0.025 -0.003c0.004 0.002 0.008 0.002 0.012 0.002 0.004 0 0.008 0 0.014 0v-0.025c-0.006 0 -0.009 0 -0.012 0a0.014 0.014 0 0 1 -0.004 -0.001l-0.009 0.023Zm-0.02 -0.018a0.038 0.038 0 0 0 0.02 0.018l0.009 -0.023a0.013 0.013 0 0 1 -0.007 -0.006l-0.022 0.011Zm-0.005 -0.025c0.001 0.005 0.001 0.01 0.002 0.014 0.001 0.004 0.002 0.008 0.004 0.011l0.022 -0.011a0.014 0.014 0 0 1 -0.001 -0.004 0.199 0.199 0 0 1 -0.001 -0.012l-0.025 0.003Zm-0.005 -0.03c0 0 0.001 0.002 0.002 0.007 0.001 0.005 0.002 0.012 0.003 0.023l0.025 -0.003c-0.001 -0.01 -0.002 -0.018 -0.003 -0.025 -0.001 -0.006 -0.003 -0.013 -0.007 -0.018l-0.02 0.015Zm-0.012 -0.005a0.013 0.013 0 0 1 0.012 0.005l0.02 -0.015a0.038 0.038 0 0 0 -0.035 -0.014l0.003 0.025Zm-0.025 0.018c0.008 -0.007 0.014 -0.011 0.018 -0.014 0.004 -0.003 0.006 -0.004 0.007 -0.004l-0.003 -0.025c-0.007 0.001 -0.012 0.004 -0.018 0.008 -0.005 0.004 -0.012 0.009 -0.02 0.015l0.016 0.019Zm0 0 -0.017 -0.019 0.017 0.019Zm-0.022 0.014c0.004 -0.001 0.007 -0.003 0.011 -0.006 0.003 -0.002 0.007 -0.005 0.011 -0.008l-0.016 -0.019a0.201 0.201 0 0 1 -0.009 0.007 0.014 0.014 0 0 1 -0.004 0.002l0.008 0.024Zm-0.026 -0.001a0.038 0.038 0 0 0 0.026 0.001l-0.008 -0.024a0.013 0.013 0 0 1 -0.009 0l-0.01 0.023Zm-0.02 -0.016c0.004 0.004 0.007 0.007 0.01 0.01 0.003 0.003 0.006 0.005 0.01 0.007l0.01 -0.023a0.014 0.014 0 0 1 -0.003 -0.003 0.202 0.202 0 0 1 -0.009 -0.008l-0.018 0.018Zm-0.022 -0.022 0.022 0.022 0.018 -0.018 -0.022 -0.022 -0.018 0.018Zm-0.016 -0.02c0.002 0.004 0.004 0.007 0.007 0.01 0.003 0.003 0.006 0.006 0.009 0.01l0.018 -0.018a0.202 0.202 0 0 1 -0.008 -0.009 0.014 0.014 0 0 1 -0.003 -0.003l-0.023 0.01Zm-0.001 -0.026a0.038 0.038 0 0 0 0.001 0.026l0.023 -0.01a0.013 0.013 0 0 1 0 -0.009l-0.024 -0.008Zm0.014 -0.021c-0.003 0.004 -0.006 0.008 -0.008 0.011a0.038 0.038 0 0 0 -0.006 0.011l0.024 0.008a0.014 0.014 0 0 1 0.002 -0.004c0.002 -0.002 0.004 -0.005 0.007 -0.009l-0.019 -0.016Zm0.018 -0.025c0 0 -0.001 0.002 -0.004 0.007 -0.003 0.004 -0.008 0.01 -0.014 0.018l0.019 0.016c0.006 -0.008 0.012 -0.014 0.015 -0.02 0.004 -0.005 0.007 -0.011 0.008 -0.018l-0.025 -0.003Zm-0.005 -0.012a0.013 0.013 0 0 1 0.005 0.012l0.025 0.003a0.038 0.038 0 0 0 -0.014 -0.035l-0.015 0.02Zm-0.03 -0.005c0.01 0.001 0.018 0.002 0.023 0.003 0.005 0.001 0.007 0.002 0.007 0.002l0.015 -0.02c-0.005 -0.004 -0.012 -0.006 -0.018 -0.007 -0.006 -0.001 -0.015 -0.002 -0.025 -0.003l-0.003 0.025Zm-0.025 -0.005c0.004 0.002 0.008 0.003 0.011 0.004 0.004 0.001 0.008 0.001 0.014 0.002l0.003 -0.025a0.199 0.199 0 0 1 -0.012 -0.001 0.014 0.014 0 0 1 -0.004 -0.001l-0.011 0.022Zm-0.018 -0.02a0.038 0.038 0 0 0 0.018 0.02l0.011 -0.022a0.013 0.013 0 0 1 -0.006 -0.007l-0.023 0.009ZM0.038 0.316c0 0.005 0 0.01 0 0.014 0 0.004 0.001 0.008 0.002 0.012l0.023 -0.009a0.014 0.014 0 0 1 -0.001 -0.004 0.202 0.202 0 0 1 0 -0.012h-0.025Zm0 -0.032v0.032h0.025v-0.032h-0.025Zm0.003 -0.025a0.038 0.038 0 0 0 -0.002 0.012c0 0.004 0 0.008 0 0.014h0.025c0 -0.006 0 -0.009 0 -0.012a0.014 0.014 0 0 1 0.001 -0.004l-0.023 -0.009Zm0.018 -0.02a0.038 0.038 0 0 0 -0.018 0.02l0.023 0.009a0.013 0.013 0 0 1 0.006 -0.007l-0.011 -0.022Zm0.025 -0.005c-0.005 0.001 -0.01 0.001 -0.014 0.002a0.038 0.038 0 0 0 -0.011 0.004l0.011 0.022c0.001 0 0.002 -0.001 0.004 -0.001 0.003 0 0.006 -0.001 0.012 -0.001l-0.003 -0.025Zm0.001 0v0.025Zm0 0v0.025Zm0.029 -0.005c0 0 -0.002 0.001 -0.007 0.002 -0.005 0.001 -0.012 0.002 -0.023 0.003l0.003 0.025c0.01 -0.001 0.018 -0.002 0.025 -0.003 0.006 -0.001 0.013 -0.003 0.018 -0.007l-0.015 -0.02Zm0.005 -0.012a0.013 0.013 0 0 1 -0.005 0.012l0.015 0.02a0.038 0.038 0 0 0 0.014 -0.035l-0.025 0.003Zm-0.018 -0.025c0.007 0.008 0.011 0.014 0.014 0.018 0.003 0.004 0.004 0.006 0.004 0.007l0.025 -0.003c-0.001 -0.007 -0.004 -0.012 -0.008 -0.018 -0.004 -0.005 -0.009 -0.012 -0.015 -0.02l-0.019 0.016Zm-0.014 -0.021c0.001 0.004 0.003 0.007 0.006 0.011 0.002 0.003 0.005 0.007 0.008 0.011l0.019 -0.016a0.201 0.201 0 0 1 -0.007 -0.009 0.014 0.014 0 0 1 -0.002 -0.004l-0.024 0.008Zm0.001 -0.026a0.038 0.038 0 0 0 -0.001 0.026l0.024 -0.008a0.013 0.013 0 0 1 0 -0.009l-0.023 -0.01Zm0.016 -0.02c-0.004 0.004 -0.007 0.007 -0.01 0.01a0.038 0.038 0 0 0 -0.007 0.01l0.023 0.01a0.014 0.014 0 0 1 0.003 -0.003c0.002 -0.002 0.004 -0.005 0.008 -0.009l-0.018 -0.018Zm0.022 -0.022 -0.022 0.022 0.018 0.018 0.022 -0.022 -0.018 -0.018Zm0 0 0.018 0.018 -0.018 -0.018Zm0.02 -0.016c-0.004 0.002 -0.007 0.004 -0.01 0.007 -0.003 0.003 -0.006 0.006 -0.01 0.01l0.018 0.018c0.004 -0.004 0.007 -0.007 0.009 -0.008 0.002 -0.002 0.003 -0.002 0.003 -0.003l-0.01 -0.023Zm0.026 -0.001a0.038 0.038 0 0 0 -0.026 0.001l0.01 0.023a0.013 0.013 0 0 1 0.009 0l0.008 -0.024Zm0.021 0.014c-0.004 -0.003 -0.008 -0.006 -0.011 -0.008a0.038 0.038 0 0 0 -0.011 -0.006l-0.008 0.024a0.014 0.014 0 0 1 0.004 0.002c0.002 0.002 0.005 0.004 0.009 0.007l0.016 -0.019Zm0.025 0.018c0 0 -0.002 -0.001 -0.007 -0.004a0.333 0.333 0 0 1 -0.018 -0.014l-0.016 0.019c0.008 0.006 0.014 0.012 0.02 0.015 0.005 0.004 0.011 0.007 0.018 0.008l0.003 -0.025Zm0.012 -0.005a0.013 0.013 0 0 1 -0.012 0.005l-0.003 0.025a0.038 0.038 0 0 0 0.035 -0.014l-0.02 -0.015Zm0.005 -0.03c-0.001 0.01 -0.002 0.018 -0.003 0.023 -0.001 0.005 -0.002 0.007 -0.002 0.007l0.02 0.015c0.004 -0.005 0.006 -0.012 0.007 -0.018 0.001 -0.006 0.002 -0.015 0.003 -0.025l-0.025 -0.003Zm0.005 -0.025c-0.002 0.004 -0.003 0.008 -0.004 0.011 -0.001 0.004 -0.001 0.008 -0.002 0.014l0.025 0.003a0.199 0.199 0 0 1 0.001 -0.012 0.014 0.014 0 0 1 0.001 -0.004l-0.022 -0.011Zm0.02 -0.018a0.038 0.038 0 0 0 -0.02 0.018l0.022 0.011a0.013 0.013 0 0 1 0.007 -0.006l-0.009 -0.023Zm0.025 -0.003c-0.005 0 -0.01 0 -0.014 0 -0.004 0 -0.008 0.001 -0.012 0.002l0.009 0.023a0.014 0.014 0 0 1 0.004 -0.001c0.003 0 0.006 0 0.012 0v-0.025Zm0.032 0h-0.032v0.025h0.032v-0.025Zm0.025 0.003a0.038 0.038 0 0 0 -0.012 -0.002c-0.004 0 -0.008 0 -0.014 0v0.025c0.006 0 0.009 0 0.012 0 0.003 0 0.004 0 0.004 0.001l0.009 -0.023Zm0.02 0.018a0.038 0.038 0 0 0 -0.02 -0.018l-0.009 0.023a0.013 0.013 0 0 1 0.007 0.006l0.022 -0.011ZM0.388 0.3a0.088 0.088 0 0 1 -0.088 0.088v0.025a0.113 0.113 0 0 0 0.113 -0.113h-0.025ZM0.3 0.213a0.088 0.088 0 0 1 0.088 0.088h0.025A0.113 0.113 0 0 0 0.3 0.188v0.025ZM0.213 0.3A0.088 0.088 0 0 1 0.3 0.213v-0.025A0.113 0.113 0 0 0 0.188 0.3h0.025Zm0.088 0.088A0.088 0.088 0 0 1 0.213 0.3h-0.025a0.113 0.113 0 0 0 0.113 0.113v-0.025Z" fill="#FFFFFF"/></svg>