<svg width="20" height="20" viewBox="0 0 20 20" xmlns="http://www.w3.org/2000/svg"><path d="m2.857 11.429 7.857.001a1.429 1.429 0 0 1 1.425 1.321l.004.107v1.785c-.001 3-3.062 3.929-5.357 3.929-2.249 0-5.235-.892-5.354-3.751l-.003-.178v-1.786c0-.753.583-1.37 1.321-1.425l.107-.003Zm14.286 0 .107.004a1.429 1.429 0 0 1 1.317 1.313l.004.111v1.429c-.001 2.685-2.45 3.571-4.286 3.571-.756 0-1.614-.154-2.364-.518.227-.27.419-.57.569-.906.684.3 1.422.346 1.734.351l.206-.002c.74-.025 2.95-.274 3.064-2.331l.006-.165v-1.429a.358.358 0 0 0-.293-.351l-.064-.006-4.322.001a2.111 2.111 0 0 0-.425-.957l-.096-.115h4.843ZM2.857 12.5l-.071.007a.364.364 0 0 0-.181.097.362.362 0 0 0-.097.181l-.008.072v1.786c0 .956.419 1.664 1.282 2.161.711.411 1.707.659 2.76.693l.244.004.311-.007c1.086-.049 3.842-.398 3.971-2.684l.004-.166V12.86a.359.359 0 0 0-.293-.351l-.064-.006-7.858-.003ZM6.786 2.143a3.929 3.929 0 1 1 0 7.857 3.929 3.929 0 0 1 0-7.857Zm7.857 1.429a3.214 3.214 0 1 1 0 6.429 3.214 3.214 0 0 1 0-6.429Zm-7.857-.357c-1.576 0-2.857 1.281-2.857 2.857S5.21 8.929 6.786 8.929s2.857-1.281 2.857-2.857-1.281-2.857-2.857-2.857Zm7.857 1.429c-1.181 0-2.143.961-2.143 2.143s.961 2.143 2.143 2.143 2.143-.961 2.143-2.143-.961-2.143-2.143-2.143Z" fill="#212121"/></svg>