<svg width="20px" height="20px" viewBox="0 0 20 20" version="1.1" xmlns="http://www.w3.org/2000/svg" xmlns:xlink="http://www.w3.org/1999/xlink"><title>ic_fluent_share_24_regular</title><desc>Created with Sketch.</desc><g id="ðŸ”-Product-Icons" stroke="none" stroke-width="1" fill="none" fill-rule="evenodd"><g id="ic_fluent_share_24_regular" fill="#212121" fill-rule="nonzero"><path d="M5.623 3.333h2.887a0.625 0.625 0 0 1 0.085 1.244l-0.085 0.006H5.623a1.875 1.875 0 0 0 -1.871 1.747l-0.004 0.128v7.917a1.875 1.875 0 0 0 1.747 1.871l0.128 0.004h7.917a1.875 1.875 0 0 0 1.871 -1.747l0.004 -0.128v-0.415a0.625 0.625 0 0 1 1.245 -0.085l0.005 0.085v0.415a3.125 3.125 0 0 1 -2.958 3.121l-0.167 0.004h-7.917a3.125 3.125 0 0 1 -3.121 -2.958l-0.004 -0.167v-7.917a3.125 3.125 0 0 1 2.958 -3.121l0.167 -0.004h2.887ZM12.083 5.433V3.125a0.625 0.625 0 0 1 0.989 -0.508l0.068 0.058 4.995 4.792c0.233 0.223 0.255 0.583 0.064 0.831l-0.063 0.071 -4.996 4.793a0.625 0.625 0 0 1 -1.052 -0.362l-0.006 -0.089v-2.271l-0.287 0.025c-2 0.208 -3.917 1.108 -5.762 2.717 -0.433 0.378 -1.103 0.021 -1.031 -0.548 0.554 -4.433 2.872 -6.877 6.829 -7.183l0.25 -0.017V3.125v2.308ZM13.333 4.591V6.042a0.625 0.625 0 0 1 -0.625 0.625c-3.228 0 -5.228 1.397 -6.093 4.298l-0.066 0.233 0.294 -0.198C8.707 9.781 10.665 9.167 12.708 9.167a0.625 0.625 0 0 1 0.619 0.54l0.006 0.085v1.453L16.8 7.917l-3.467 -3.326Z" id="ðŸŽ¨-Color"/></g></g></svg>