<svg version="1.1" id="Capa_1" xmlns="http://www.w3.org/2000/svg" xmlns:xlink="http://www.w3.org/1999/xlink" x="0px" y="0px" viewBox="0 0 20 20" style="enable-background:new 0 0 489.1 489.1;" xml:space="preserve" width="16" height="16"><g><g><path d="M10 20c0.278 0 0.503 -0.225 0.503 -0.503V6.015l2.286 2.286c0.098 0.098 0.225 0.147 0.356 0.147s0.258 -0.049 0.356 -0.147c0.196 -0.196 0.196 -0.511 0 -0.707l-3.14 -3.14c-0.196 -0.196 -0.511 -0.196 -0.707 0l-3.14 3.14c-0.196 0.196 -0.196 0.511 0 0.707s0.511 0.196 0.707 0l2.286 -2.286v13.482c-0.004 0.278 0.217 0.503 0.495 0.503z"/><path d="M19.973 0.499c0 -0.278 -0.225 -0.499 -0.503 -0.499H0.53C0.251 0 0.027 0.225 0.027 0.499s0.225 0.503 0.503 0.503h18.941c0.278 -0.004 0.503 -0.229 0.503 -0.503z"/></g></g></svg>